<svg width="46" height="47" viewBox="0 0 46 47" fill="none" xmlns="http://www.w3.org/2000/svg">
  <path
    d="M22.9987 27.6126C27.2269 27.6126 30.6654 24.1741 30.6654 19.946C30.6654 15.7178 27.2269 12.2793 22.9987 12.2793C18.7705 12.2793 15.332 15.7178 15.332 19.946C15.332 24.1741 18.7705 27.6126 22.9987 27.6126ZM22.9987 16.1126C25.1128 16.1126 26.832 17.8319 26.832 19.946C26.832 22.06 25.1128 23.7793 22.9987 23.7793C20.8846 23.7793 19.1654 22.06 19.1654 19.946C19.1654 17.8319 20.8846 16.1126 22.9987 16.1126Z"
    fill="white" />
  <path
    d="M21.8898 42.5891C22.2142 42.8208 22.6029 42.9453 23.0015 42.9453C23.4001 42.9453 23.7887 42.8208 24.1131 42.5891C24.6958 42.1771 38.3904 32.289 38.3348 19.9456C38.3348 11.4912 31.4559 4.6123 23.0015 4.6123C14.5471 4.6123 7.66814 11.4912 7.66814 19.9361C7.61255 32.289 21.3071 42.1771 21.8898 42.5891ZM23.0015 8.44564C29.3437 8.44564 34.5015 13.6034 34.5015 19.9552C34.5417 28.4614 26.0911 36.0993 23.0015 38.6044C19.9137 36.0974 11.4612 28.4576 11.5015 19.9456C11.5015 13.6034 16.6592 8.44564 23.0015 8.44564Z"
    fill="white" />
</svg>
  