<svg width="194" height="64" viewBox="0 0 194 64" fill="none" xmlns="http://www.w3.org/2000/svg">
<g id="logos:google" clip-path="url(#clip0_66_4683)">
<path id="Vector" d="M187.489 39.1114L192.844 42.6623C191.106 45.2086 186.95 49.5773 179.764 49.5773C170.841 49.5773 164.195 42.7092 164.195 33.9721C164.195 24.6747 170.911 18.3672 179.012 18.3672C187.161 18.3672 191.153 24.8146 192.444 28.2953L193.149 30.0709L172.156 38.7143C173.753 41.8448 176.242 43.4333 179.764 43.4333C183.286 43.4333 185.728 41.7046 187.489 39.1114ZM171.029 33.4819L185.047 27.6882C184.272 25.7494 181.972 24.3713 179.224 24.3713C175.725 24.3713 170.864 27.4549 171.029 33.4819Z" fill="#FF302F"/>
<path id="Vector_2" d="M154.074 2.45838H160.837V48.1521H154.074V2.45801V2.45838Z" fill="#20B15A"/>
<path id="Vector_3" d="M143.413 19.5816H149.941V47.3342C149.941 58.8509 143.107 63.5931 135.029 63.5931C127.421 63.5931 122.842 58.5006 121.128 54.3659L127.116 51.8894C128.196 54.4356 130.802 57.4495 135.029 57.4495C140.219 57.4495 143.413 54.2489 143.413 48.2687V46.0262H143.178C141.628 47.8949 138.669 49.5767 134.912 49.5767C127.069 49.5767 119.883 42.7787 119.883 34.0187C119.883 25.2115 127.069 18.3438 134.912 18.3438C138.646 18.3438 141.628 20.0024 143.178 21.8245H143.413V19.582V19.5816ZM143.882 34.0187C143.882 28.5055 140.195 24.4874 135.499 24.4874C130.755 24.4874 126.763 28.5055 126.763 34.0187C126.763 39.4615 130.755 43.4095 135.499 43.4095C140.196 43.4331 143.882 39.4615 143.882 34.0187H143.882Z" fill="#3686F7"/>
<path id="Vector_4" d="M82.759 33.902C82.759 42.896 75.7145 49.5069 67.0729 49.5069C58.4316 49.5069 51.3867 42.8728 51.3867 33.902C51.3867 24.8615 58.4316 18.2739 67.0729 18.2739C75.7145 18.2739 82.759 24.8615 82.759 33.902ZM75.9022 33.902C75.9022 28.2958 71.8161 24.4408 67.0729 24.4408C62.3297 24.4408 58.2435 28.2958 58.2435 33.902C58.2435 39.4618 62.3297 43.3633 67.0729 43.3633C71.8164 43.3633 75.9022 39.4618 75.9022 33.902Z" fill="#FF302F"/>
<path id="Vector_5" d="M117.017 33.9721C117.017 42.9661 109.972 49.5769 101.331 49.5769C92.689 49.5769 85.6445 42.9657 85.6445 33.9721C85.6445 24.9316 92.689 18.3672 101.331 18.3672C109.972 18.3672 117.017 24.9083 117.017 33.9721ZM110.136 33.9721C110.136 28.3658 106.051 24.5108 101.307 24.5108C96.5637 24.5108 92.4776 28.3658 92.4776 33.9721C92.4776 39.5318 96.5637 43.4333 101.307 43.4333C106.074 43.4333 110.136 39.5086 110.136 33.9721Z" fill="#FFBA40"/>
<path id="Vector_6" d="M25.6021 42.7323C15.7629 42.7323 8.06097 34.8363 8.06097 25.0481C8.06097 15.2602 15.7629 7.36418 25.6021 7.36418C30.9092 7.36418 34.7836 9.44318 37.6484 12.1064L42.3686 7.41106C38.3767 3.60331 33.0462 0.706055 25.6021 0.706055C12.1234 0.70643 0.78125 11.6396 0.78125 25.0481C0.78125 38.4573 12.1234 49.3901 25.6021 49.3901C32.8818 49.3901 38.3767 47.0073 42.6739 42.5688C47.0884 38.1768 48.4504 32.0096 48.4504 27.0104C48.4504 25.4452 48.2627 23.8334 48.0512 22.6421H25.6021V29.1363H41.5936C41.1239 33.2013 39.8325 35.9812 37.9304 37.8731C35.6291 40.1861 31.9896 42.7323 25.6021 42.7323Z" fill="#3686F7"/>
</g>
<defs>
<clipPath id="clip0_66_4683">
<rect width="193" height="63" fill="white" transform="translate(0.5 0.609375)"/>
</clipPath>
</defs>
</svg>
