<svg width="42" height="42" viewBox="0 0 42 42" fill="none" xmlns="http://www.w3.org/2000/svg">
  <path
    d="M35.7321 5.26172H6.27302C5.56456 5.26172 4.99219 5.83409 4.99219 6.54255V36.0017C4.99219 36.7101 5.56456 37.2825 6.27302 37.2825H35.7321C36.4406 37.2825 37.013 36.7101 37.013 36.0017V6.54255C37.013 5.83409 36.4406 5.26172 35.7321 5.26172ZM32.0337 14.6078H29.4761C27.4708 14.6078 27.0825 15.5604 27.0825 16.9613V20.0473H31.8696L31.2452 24.8784H27.0825V37.2825H22.0913V24.8825H17.9166V20.0473H22.0913V16.485C22.0913 12.3503 24.6169 10.0969 28.3073 10.0969C30.0765 10.0969 31.5934 10.2289 32.0377 10.289V14.6078H32.0337Z"
    fill="white" />
</svg>
  