<svg width="42" height="42" viewBox="0 0 42 42" fill="none" xmlns="http://www.w3.org/2000/svg">
  <path
    d="M35.7165 5.26172H6.25739C5.54893 5.26172 4.97656 5.83409 4.97656 6.54255V36.0017C4.97656 36.7101 5.54893 37.2825 6.25739 37.2825H35.7165C36.425 37.2825 36.9973 36.7101 36.9973 36.0017V6.54255C36.9973 5.83409 36.425 5.26172 35.7165 5.26172ZM14.4747 32.5474H9.72364V17.2655H14.4747V32.5474ZM12.1012 15.1762C11.5565 15.1762 11.0241 15.0146 10.5713 14.7121C10.1184 14.4095 9.76545 13.9794 9.55702 13.4762C9.34859 12.973 9.29406 12.4193 9.40031 11.8851C9.50657 11.3509 9.76884 10.8603 10.154 10.4751C10.5391 10.09 11.0298 9.82775 11.5639 9.72149C12.0981 9.61524 12.6518 9.66977 13.155 9.8782C13.6582 10.0866 14.0883 10.4396 14.3909 10.8924C14.6935 11.3453 14.855 11.8777 14.855 12.4224C14.851 13.9434 13.6182 15.1762 12.1012 15.1762ZM32.2623 32.5474H27.5152V25.1146C27.5152 23.3414 27.4832 21.064 25.0456 21.064C22.576 21.064 22.1957 22.9932 22.1957 24.9865V32.5474H17.4527V17.2655H22.0076V19.3549H22.0717C22.7041 18.1541 24.2531 16.8853 26.5666 16.8853C31.3777 16.8853 32.2623 20.0513 32.2623 24.166V32.5474Z"
    fill="white" />
</svg>
  