<svg width="42" height="42" viewBox="0 0 42 42" fill="none" xmlns="http://www.w3.org/2000/svg">
  <path
    d="M37.665 10.9582C36.4402 11.4866 35.1073 11.8668 33.7344 12.0149C35.1598 11.1681 36.2272 9.83031 36.7364 8.25249C35.3988 9.04816 33.9336 9.6061 32.4056 9.90156C31.7669 9.21882 30.9945 8.67492 30.1365 8.30375C29.2785 7.93258 28.3532 7.74209 27.4183 7.74416C23.6359 7.74416 20.5939 10.8101 20.5939 14.5726C20.5939 15.1009 20.6579 15.6293 20.762 16.1376C15.0983 15.8414 10.0471 13.1357 6.68889 8.99297C6.07699 10.0381 5.75634 11.2281 5.76028 12.4392C5.76028 14.8087 6.96507 16.8981 8.80226 18.1269C7.71957 18.0843 6.66224 17.7867 5.71626 17.2583V17.3424C5.71626 20.6605 8.06178 23.4103 11.1878 24.0427C10.6009 24.1952 9.99706 24.2732 9.39064 24.2749C8.94635 24.2749 8.52608 24.2309 8.1018 24.1708C8.96636 26.8766 11.484 28.8418 14.4819 28.9059C12.1364 30.7431 9.19851 31.8238 6.00845 31.8238C5.43607 31.8238 4.90773 31.8038 4.35938 31.7397C7.38534 33.681 10.9757 34.8017 14.8422 34.8017C27.3943 34.8017 34.2628 24.403 34.2628 15.3771C34.2628 15.0809 34.2628 14.7847 34.2428 14.4885C35.5716 13.5159 36.7364 12.3111 37.665 10.9582Z"
    fill="white" />
</svg>
  